C:\Users\ma86\Desktop\PsoasStudy\Results\MuscGeometrySampling_R.mot														
version=1														
nRows=65														
nColumns=15														
inDegrees=yes														
endheader														
time	pelvis_tilt	pelvis_list	pelvis_rotation	pelvis_tx	pelvis_ty	pelvis_tz	hip_flexion_r	hip_adduction_r	hip_rotation_r	knee_angle_r	knee_angle_r_beta	ankle_angle_r	subtalar_angle_r	mtp_angle_r
500	0	0	0	0	0	0	7.09383202	2.48678619	-8.19106971	30.54485406	0	-4.05615791	4.80263571	0
501	0	0	0	0	0	0	5.56378869	8.42157152	19.43951727	77.50531382	0	6.57252272	-22.75586902	0
502	0	0	0	0	0	0	-18.53773354	-29.86181163	-20.66760904	46.01263278	0	27.07670103	-16.88903659	0
503	0	0	0	0	0	0	45.81499006	-9.22682577	-10.3148454	17.30422475	0	-15.30748887	-19.48361366	0
504	0	0	0	0	0	0	52.7213743	8.49791109	-2.73416457	11.97875578	0	-1.10513442	-8.12758576	0
505	0	0	0	0	0	0	38.17341344	-14.24282129	-10.81475912	5.01826431	0	-27.7272367	-17.58838925	0
506	0	0	0	0	0	0	-3.41091333	-3.36079409	-0.58325513	60.35016303	0	-10.1033195	-11.82706194	0
507	0	0	0	0	0	0	49.20496866	-23.77172897	-9.0734489	32.76386459	0	21.03265836	-3.14707817	0
508	0	0	0	0	0	0	38.73471519	-15.79645661	-15.37786108	13.00554264	0	-21.11501653	6.68104788	0
509	0	0	0	0	0	0	22.52627721	-26.75544312	14.46290723	19.85962409	0	15.95252963	-16.29570011	0
510	0	0	0	0	0	0	26.18496156	-16.53745052	17.83480151	53.87659446	0	-28.84328982	-4.79673568	0
511	0	0	0	0	0	0	8.99533048	-5.24771308	-10.39256889	80.02890467	0	6.8162063	16.55160184	0
512	0	0	0	0	0	0	9.81538748	-23.27363918	-11.01649246	1.48125689	0	-19.7394086	-2.43212697	0
513	0	0	0	0	0	0	11.12719271	-23.42192167	-20.59305783	24.97867363	0	29.89305023	-16.11588849	0
514	0	0	0	0	0	0	24.1150685	7.08280644	8.40957304	31.13528321	0	20.26381925	0.90546274	0
515	0	0	0	0	0	0	1.98284035	3.53328349	7.79677616	75.61036604	0	11.3882875	15.19971187	0
516	0	0	0	0	0	0	50.44777751	-3.25221039	-15.82117441	27.71061041	0	22.43749082	5.58005781	0
517	0	0	0	0	0	0	30.22928787	-1.52170024	-4.25787385	75.46320952	0	17.12164059	-7.59294033	0
518	0	0	0	0	0	0	11.32779642	10.76033751	-14.55361161	55.33580701	0	-30.71428605	-4.03480091	0
519	0	0	0	0	0	0	40.95444519	-29.01158806	-9.80425865	87.71036396	0	21.5948637	-19.4510917	0
520	0	0	0	0	0	0	26.79323055	-25.41343463	3.66962099	16.27985044	0	-2.33577823	-9.31939359	0
521	0	0	0	0	0	0	35.85749392	-6.00113986	-25.46589245	37.27450236	0	-11.7879468	-9.6866221	0
522	0	0	0	0	0	0	-14.00234072	12.6914851	-26.55745699	23.00788244	0	-14.55305115	10.93433676	0
523	0	0	0	0	0	0	38.09133899	-25.56114582	-15.02320444	80.30717144	0	26.43487748	6.29039052	0
524	0	0	0	0	0	0	51.48318765	-11.75740317	-13.52416739	72.70153447	0	28.35614258	5.27712044	0
525	0	0	0	0	0	0	35.97551603	11.41174982	-3.28201347	76.67949765	0	1.34940615	6.61915201	0
526	0	0	0	0	0	0	13.81339179	-15.71314059	1.90595949	38.39337078	0	-10.00024864	-5.15839016	0
527	0	0	0	0	0	0	24.95723832	14.98361481	-0.01909234	71.03004657	0	16.89691987	6.06260095	0
528	0	0	0	0	0	0	44.3320596	-25.62183214	12.3305996	66.64264546	0	28.21861435	16.88463543	0
529	0	0	0	0	0	0	49.76848601	12.01921503	-23.31072825	14.28317465	0	10.93371739	2.93256902	0
530	0	0	0	0	0	0	33.51644549	-18.78266263	-0.67448975	60.65631553	0	25.59695056	13.41619933	0
531	0	0	0	0	0	0	51.12450124	12.56173506	-0.49823256	58.63750481	0	-10.32057137	-8.08069438	0
532	0	0	0	0	0	0	-3.06318412	-9.34930333	-5.41016159	19.24827371	0	-29.97522659	18.89576657	0
533	0	0	0	0	0	0	50.77169287	-28.92623641	-7.73005296	29.03853167	0	-34.43639111	-23.48922394	0
534	0	0	0	0	0	0	13.95370146	8.08939456	17.62692072	23.70401567	0	-3.36463983	-15.35400281	0
535	0	0	0	0	0	0	40.42858781	-14.03311922	16.87576981	62.75154949	0	13.4285035	-8.91119131	0
536	0	0	0	0	0	0	29.71933576	-2.05652048	13.24874248	51.84841203	0	-14.04945209	5.51432741	0
537	0	0	0	0	0	0	-16.24275483	-12.34584142	3.56778532	44.78757266	0	-22.82608002	-6.13235006	0
538	0	0	0	0	0	0	-17.0224667	9.45936277	-26.80434077	6.77420286	0	-15.02923502	-6.88289719	0
539	0	0	0	0	0	0	45.25384648	12.87798222	-5.12525958	7.81700153	0	-31.56578518	5.81567923	0
540	0	0	0	0	0	0	-1.02307604	-11.37607073	-15.88018999	38.07357722	0	7.38267209	16.91421584	0
541	0	0	0	0	0	0	20.239597	9.19815581	-15.55137104	34.33137644	0	-4.97621278	10.15122708	0
542	0	0	0	0	0	0	35.40195809	10.5603675	17.35693997	21.22260654	0	-19.15661795	17.34624454	0
543	0	0	0	0	0	0	53.804288	-22.89647522	-23.92533084	45.05269779	0	17.03109526	-18.77423557	0
544	0	0	0	0	0	0	22.83815705	-2.987448	2.67728061	49.29472338	0	14.0926408	-10.74005809	0
545	0	0	0	0	0	0	7.45849691	-18.6884434	18.76449762	66.19270544	0	1.10197215	14.26627867	0
546	0	0	0	0	0	0	36.53659666	-21.64845676	-3.6895947	11.02834321	0	-0.69569313	8.31995003	0
547	0	0	0	0	0	0	34.82143215	9.60618058	-4.13677551	33.69854333	0	-25.61665209	-20.11487001	0
548	0	0	0	0	0	0	57.57189345	-13.07806659	11.76136569	89.35493546	0	-2.94697659	-24.24247568	0
549	0	0	0	0	0	0	10.81814908	-28.47306691	-24.57639976	9.75343506	0	4.60107196	-21.96050587	0
550	0	0	0	0	0	0	33.76040477	-6.4064964	-6.79003796	72.18696616	0	-26.06744225	-24.75192941	0
551	0	0	0	0	0	0	47.74034147	-19.03609617	1.18268972	86.64636237	0	18.22801023	-13.60407989	0
552	0	0	0	0	0	0	-12.45293069	-17.22928284	7.7106352	12.46496945	0	-8.43271943	-22.40585863	0
553	0	0	0	0	0	0	18.51635271	-28.0434101	-27.38833371	52.53175859	0	-39.4671412	8.74648924	0
554	0	0	0	0	0	0	44.09449981	3.48427487	13.37343011	85.49170032	0	10.56890434	-2.84161714	0
555	0	0	0	0	0	0	-2.43495545	-25.49120667	12.75416904	12.71935291	0	27.48295843	17.57703521	0
556	0	0	0	0	0	0	33.56427909	-5.40005968	-28.5419232	74.19950384	0	9.46704532	13.9081445	0
557	0	0	0	0	0	0	19.09773151	10.52611249	-19.71242714	10.64780962	0	14.25662903	19.72259909	0
558	0	0	0	0	0	0	32.64588889	-7.80626636	-29.21532943	33.84514015	0	-1.50969528	-19.3248842	0
559	0	0	0	0	0	0	-14.08240043	-19.76705134	-3.17713815	32.59061026	0	24.84708163	-3.37297553	0
560	0	0	0	0	0	0	50.18675086	-25.98701787	-5.61440688	68.11593747	0	16.21711323	6.67483534	0
561	0	0	0	0	0	0	30.68003749	-1.89084887	-8.43729594	3.16447715	0	-22.24405379	-6.6217811	0
562	0	0	0	0	0	0	-16.6053776	-16.61586293	17.89160566	17.77272146	0	-38.96205194	16.09524229	0
563	0	0	0	0	0	0	27.95966532	-7.3046473	15.18693324	40.52101438	0	5.91284375	-21.63079582	0
564	0	0	0	0	0	0	22.09442136	4.22668284	-26.87612628	68.17992942	0	-32.30582455	-17.46773722	0
